<svg width="486.000000" height="742.000000" viewBox="0 0 486 742" fill="none" xmlns="http://www.w3.org/2000/svg" xmlns:xlink="http://www.w3.org/1999/xlink">
	<desc>
			Created with Pixso.
	</desc>
	<defs>
		<linearGradient x1="257.999939" y1="755.000000" x2="257.999939" y2="170.999268" id="paint_linear_5503_35_0" gradientUnits="userSpaceOnUse">
			<stop stop-color="#FFFFFF"/>
			<stop offset="0.411317" stop-color="#FFFFFF" stop-opacity="0.443137"/>
			<stop offset="1.000000" stop-color="#FFFFFF" stop-opacity="0.000000"/>
		</linearGradient>
	</defs>
	<path id="Vector" d="M0 242.27C0 242.51 0 242.75 0 243L0 499C0 531.95 6.56 563.38 18.44 592.03C18.84 592.98 19.24 593.93 19.64 594.88C31.92 623.43 49.51 649.16 71.17 670.82C92.81 692.47 118.53 710.05 147.06 722.32C148.1 722.77 149.14 723.21 150.19 723.64C178.78 735.47 210.13 742 243 742C275.97 742 307.42 735.43 336.09 723.53C336.95 723.17 337.8 722.81 338.66 722.44C367.3 710.16 393.11 692.54 414.82 670.82C436.45 649.19 454.02 623.51 466.29 595C466.72 594 467.15 592.99 467.57 591.98C479.44 563.34 486 531.93 486 499L486 243C486 210.04 479.44 178.62 467.55 149.96C467.13 148.96 466.71 147.97 466.29 146.97C454.02 118.47 436.45 92.79 414.82 71.17C393.22 49.56 367.56 32.01 339.09 19.74C338.03 19.28 336.97 18.83 335.91 18.39C307.49 6.62 276.36 0.09 243.72 0C243.48 0 243.24 0 243 0C242.76 0 242.52 0 242.28 0C209.58 0.09 178.4 6.64 149.95 18.45C148.97 18.85 148 19.26 147.03 19.68C90.01 44.21 44.27 89.94 19.72 146.94C19.27 147.98 18.83 149.03 18.39 150.07C6.62 178.49 0.09 209.62 0 242.27ZM485 499L485 243C485 209.58 478.22 177.75 465.98 148.8C453.91 120.27 436.53 94.54 415.08 72.84C414.44 72.2 413.79 71.55 413.15 70.91C369.43 27.68 309.33 1 243 1C242.76 1 242.52 1 242.29 1Q215.39 1.07 189.77 6.83Q168.86 11.53 148.8 20.01Q128.43 28.63 110.25 40.57Q90.24 53.71 72.88 70.88C72.21 71.54 71.54 72.21 70.87 72.88Q53.71 90.24 40.57 110.25Q28.63 128.43 20.01 148.8Q11.53 168.86 6.83 189.77Q1 215.73 1 243L1 243C1 532.41 7.77 564.24 20.01 593.19C32.11 621.79 49.54 647.57 71.07 669.3C71.64 669.88 72.22 670.46 72.8 671.04C116.52 714.29 176.64 741 243 741C309.29 741 369.35 714.34 413.06 671.16C413.69 670.54 414.32 669.91 414.95 669.28C436.46 647.56 453.89 621.78 465.98 593.19C478.22 564.24 485 532.41 485 499Z" fill="url(#paint_linear_5503_35_0)" fill-opacity="1.000000" fill-rule="evenodd"/>
</svg>
