<svg width="7.000000" height="20.000000" viewBox="0 0 7 20" fill="none" >
	<defs/>
	<path d="M6.08 0.06C6.29 0.06 6.5 0.06 6.92 0.06L6.92 3.21C6.71 3.21 6.29 3.21 5.87 3.21C5.45 3.21 5.03 3.21 4.82 3.42C4.6 3.63 4.6 3.84 4.6 4.33C4.6 4.75 4.6 5.03 4.6 5.45L6.92 5.45L6.92 8.11L4.6 8.11L4.6 19.66L1.04 19.66L1.04 8.04L-0.85 8.04L-0.85 5.38L1.04 5.38L1.04 4.47C1.04 2.93 1.25 1.81 1.67 1.32C2.3 0.41 3.56 -0.01 5.45 -0.01C5.66 0.06 5.87 0.06 6.08 0.06Z" fill-opacity="1.000000" fill-rule="nonzero"/>
</svg>
