<svg width="28.000000" height="28.000000" viewBox="0 0 28 28" fill="none">
	<defs>
		<clipPath>
			<rect width="28.000000" height="28.000000" fill="white" fill-opacity="0"/>
		</clipPath>
	</defs>
	<g>
		<g clip-path="url(#clip6_12)">
			<path d="M21.21 5.24C20.02 5.17 17.57 5.1 13.86 5.1L13.37 5.1C9.79 5.1 7.41 5.17 6.22 5.31C4.62 5.45 3.5 5.87 2.87 6.43C2.31 6.92 1.89 7.83 1.75 9.02C1.67 9.79 1.6 11.4 1.6 13.85L1.6 14.21C1.6 16.51 1.67 18.12 1.81 18.89C2.02 20.01 2.38 20.85 3.08 21.34C3.78 21.9 4.96 22.25 6.65 22.39C7.83 22.47 10.29 22.53 14 22.53L14.49 22.53C18.06 22.53 20.44 22.47 21.63 22.32C23.24 22.18 24.36 21.76 24.99 21.21C25.55 20.72 25.97 19.8 26.11 18.61C26.18 17.84 26.25 16.23 26.25 13.78L26.25 13.43C26.25 11.12 26.18 9.51 26.04 8.74C25.83 7.62 25.48 6.78 24.78 6.29C24.08 5.73 22.89 5.38 21.21 5.24ZM18.48 13.85L10.78 18.48L10.78 9.23L18.48 13.85Z" fill-opacity="1.000000" fill-rule="evenodd"/>
		</g>
	</g>
</svg>
