<svg width="156.000000" height="18.000000" viewBox="0 0 156 18" fill="none" xmlns="http://www.w3.org/2000/svg" xmlns:xlink="http://www.w3.org/1999/xlink">
	<desc>
			Created with Pixso.
	</desc>
	<defs/>
	<path id="Vector" d="M3.12 1.04L1.12 1.04C0.5 1.04 0 1.53 0 2.14L0 4.1C0 4.71 0.5 5.2 1.12 5.2L3.12 5.2C3.74 5.2 4.24 4.71 4.24 4.1L4.24 2.14C4.24 1.53 3.74 1.04 3.12 1.04ZM8.79 1.11L6.79 1.11C6.17 1.11 5.67 1.6 5.67 2.2L5.67 4.17C5.67 4.78 6.17 5.27 6.79 5.27L8.79 5.27C9.41 5.27 9.91 4.78 9.91 4.17L9.91 2.2C9.91 1.6 9.41 1.11 8.79 1.11ZM14.54 1.15L12.53 1.15C11.91 1.15 11.41 1.64 11.41 2.25L11.41 4.21C11.41 4.82 11.91 5.31 12.53 5.31L14.54 5.31C15.15 5.31 15.66 4.82 15.66 4.21L15.66 2.25C15.66 1.64 15.15 1.15 14.54 1.15ZM3.12 6.79L1.12 6.79C0.5 6.79 0 7.28 0 7.88L0 9.85C0 10.45 0.5 10.95 1.12 10.95L3.12 10.95C3.74 10.95 4.24 10.45 4.24 9.85L4.24 7.88C4.24 7.28 3.74 6.79 3.12 6.79ZM9.03 6.84L7.03 6.84C6.41 6.84 5.91 7.34 5.91 7.94L5.91 9.91C5.91 10.51 6.41 11 7.03 11L9.03 11C9.65 11 10.15 10.51 10.15 9.91L10.15 7.94C10.15 7.34 9.65 6.84 9.03 6.84ZM14.52 6.96L12.51 6.96C11.89 6.96 11.39 7.45 11.39 8.06L11.39 10.02C11.39 10.63 11.89 11.12 12.51 11.12L14.52 11.12C15.14 11.12 15.64 10.63 15.64 10.02L15.64 8.06C15.64 7.45 15.14 6.96 14.52 6.96ZM8.88 12.48L6.87 12.48C6.25 12.48 5.75 12.98 5.75 13.58L5.75 15.55C5.75 16.15 6.25 16.64 6.87 16.64L8.88 16.64C9.5 16.64 10 16.15 10 15.55L10 13.58C10 12.98 9.5 12.48 8.88 12.48ZM14.66 12.48L12.66 12.48C12.04 12.48 11.54 12.98 11.54 13.58L11.54 15.55C11.54 16.15 12.04 16.64 12.66 16.64L14.66 16.64C15.28 16.64 15.78 16.15 15.78 15.55L15.78 13.58C15.78 12.98 15.28 12.48 14.66 12.48ZM3.36 12.52L1.2 12.52C0.54 12.52 0 13.01 0 13.61L0 15.58C0 16.18 0.54 16.67 1.2 16.67L3.36 16.67C4.03 16.67 4.57 16.18 4.57 15.58L4.57 13.61C4.57 13.01 4.03 12.52 3.36 12.52Z" fill="#AE1332" fill-opacity="1.000000" fill-rule="evenodd"/>
	<path id="fresh harvest box" d="M49.55 13.79Q50.38 14.16 51.46 14.16Q52.58 14.16 53.35 13.77Q54.05 13.4 54.44 12.83Q54.48 12.77 54.51 12.71Q54.7 12.39 54.8 12.05Q54.9 11.68 54.9 11.28Q54.9 10.41 54.54 9.86Q54.42 9.68 54.27 9.52Q53.98 9.2 53.57 8.97Q52.97 8.63 52.24 8.38Q51.56 8.16 51.02 7.96Q50.49 7.76 50.19 7.48Q50.1 7.4 50.04 7.31Q49.88 7.06 49.88 6.7Q49.88 6.31 50.06 6.05Q50.15 5.92 50.28 5.83Q50.33 5.78 50.4 5.75Q50.76 5.53 51.26 5.54Q51.83 5.54 52.19 5.81Q52.27 5.87 52.33 5.94Q52.57 6.18 52.67 6.48Q52.73 6.66 52.73 6.85L54.65 6.85Q54.63 6.07 54.27 5.48Q54.24 5.42 54.2 5.36Q54.1 5.21 53.98 5.08Q53.6 4.65 53.02 4.38Q52.27 4.03 51.29 4.03Q50.33 4.03 49.59 4.37Q49.02 4.63 48.64 5.05Q48.52 5.19 48.42 5.34Q48.36 5.42 48.31 5.51Q47.99 6.08 48 6.83Q48 7.65 48.38 8.2Q48.48 8.34 48.6 8.46Q49.19 9.08 50.33 9.47Q51.02 9.71 51.64 9.92Q52.26 10.13 52.63 10.47Q52.72 10.55 52.78 10.64Q53 10.94 53 11.4Q53 11.73 52.86 11.99Q52.76 12.18 52.58 12.32Q52.16 12.67 51.44 12.67Q50.75 12.67 50.3 12.33Q50.22 12.27 50.15 12.2Q49.94 11.99 49.82 11.74Q49.67 11.42 49.65 11.04L47.76 11.04Q47.78 12 48.22 12.68Q48.24 12.71 48.25 12.73Q48.37 12.9 48.51 13.05Q48.93 13.51 49.55 13.79ZM112.61 13.79Q113.44 14.16 114.51 14.16Q115.64 14.16 116.41 13.77Q117.11 13.4 117.49 12.83Q117.53 12.77 117.57 12.71Q117.76 12.39 117.85 12.05Q117.96 11.68 117.96 11.28Q117.96 10.41 117.59 9.86Q117.48 9.68 117.33 9.52Q117.04 9.2 116.63 8.97Q116.03 8.63 115.3 8.38Q114.61 8.16 114.08 7.96Q113.55 7.76 113.24 7.48Q113.16 7.4 113.1 7.31Q112.94 7.06 112.94 6.7Q112.94 6.31 113.12 6.05Q113.2 5.92 113.33 5.83Q113.39 5.78 113.45 5.75Q113.82 5.53 114.32 5.54Q114.89 5.54 115.25 5.81Q115.32 5.87 115.39 5.94Q115.63 6.18 115.72 6.48Q115.78 6.66 115.79 6.85L117.71 6.85Q117.68 6.07 117.33 5.48Q117.29 5.42 117.25 5.36Q117.15 5.21 117.04 5.08Q116.65 4.65 116.08 4.38Q115.33 4.03 114.35 4.03Q113.38 4.03 112.64 4.37Q112.08 4.63 111.7 5.05Q111.58 5.19 111.47 5.34Q111.41 5.42 111.36 5.51Q111.05 6.08 111.06 6.83Q111.06 7.65 111.44 8.2Q111.54 8.34 111.65 8.46Q112.25 9.08 113.38 9.47Q114.08 9.71 114.7 9.92Q115.31 10.13 115.68 10.47Q115.77 10.55 115.84 10.64Q116.06 10.94 116.06 11.4Q116.06 11.73 115.92 11.99Q115.82 12.18 115.64 12.32Q115.22 12.67 114.5 12.67Q113.81 12.67 113.36 12.33Q113.28 12.27 113.21 12.2Q113 11.99 112.88 11.74Q112.73 11.42 112.71 11.04L110.82 11.04Q110.83 12 111.28 12.68Q111.29 12.71 111.31 12.73Q111.43 12.9 111.57 13.05Q111.99 13.51 112.61 13.79ZM139.65 13.54Q140.74 14.16 142.19 14.16Q143.58 14.16 144.65 13.58Q144.7 13.55 144.75 13.52Q145.27 13.22 145.68 12.81Q146.15 12.34 146.48 11.74Q147.1 10.59 147.1 9.09Q147.1 7.6 146.48 6.45Q146.14 5.83 145.66 5.36Q145.26 4.96 144.75 4.67Q144.7 4.64 144.65 4.61Q143.58 4.03 142.19 4.03Q140.74 4.03 139.65 4.66Q139.64 4.66 139.62 4.67Q139.17 4.94 138.79 5.29Q138.27 5.79 137.9 6.45Q137.28 7.6 137.28 9.09Q137.28 10.59 137.9 11.74Q138.26 12.39 138.77 12.87Q139.15 13.24 139.62 13.52Q139.64 13.53 139.65 13.54ZM25.27 4.2L25.27 14L27.06 14L27.06 9.79L30.73 9.79L30.73 8.38L27.06 8.38L27.06 5.64L31.59 5.64L31.59 4.2L25.27 4.2ZM32.42 4.2L32.42 14L34.21 14L34.21 10.13L35.7 10.13L37.51 14L39.58 14L37.55 9.89Q38.41 9.6 38.87 9Q38.94 8.91 39 8.82Q39.22 8.48 39.33 8.11Q39.48 7.67 39.48 7.18Q39.48 6.58 39.28 6.07Q39.2 5.86 39.1 5.67Q39.02 5.54 38.93 5.41Q38.57 4.91 37.96 4.6Q37.19 4.2 36.02 4.2L32.42 4.2ZM40.58 4.2L40.58 14L46.98 14L46.98 12.55L42.37 12.55L42.37 9.73L46.56 9.73L46.56 8.32L42.37 8.32L42.37 5.64L46.98 5.64L46.98 4.2L40.58 4.2ZM55.91 4.2L55.91 14L57.7 14L57.7 9.73L62.1 9.73L62.1 14L63.89 14L63.89 4.2L62.1 4.2L62.1 8.27L57.7 8.27L57.7 4.2L55.91 4.2ZM68.01 4.2L68.01 14L69.8 14L69.8 9.73L74.2 9.73L74.2 14L75.99 14L75.99 4.2L74.2 4.2L74.2 8.27L69.8 8.27L69.8 4.2L68.01 4.2ZM80.29 4.2L76.7 14L78.58 14L79.38 11.73L83.2 11.73L83.98 14L85.89 14L82.3 4.2L80.29 4.2ZM86.59 4.2L86.59 14L88.38 14L88.38 10.13L89.86 10.13L91.68 14L93.74 14L91.71 9.89Q92.57 9.6 93.04 9Q93.11 8.91 93.17 8.82Q93.38 8.48 93.5 8.11Q93.64 7.67 93.64 7.18Q93.64 6.58 93.45 6.07Q93.37 5.86 93.26 5.67Q93.19 5.54 93.1 5.41Q92.73 4.91 92.12 4.6Q91.36 4.2 90.18 4.2L86.59 4.2ZM93.67 4.2L97.25 14L99.45 14L103.04 4.2L101.15 4.2L98.36 12.16L95.59 4.2L93.67 4.2ZM103.64 4.2L103.64 14L110.04 14L110.04 12.55L105.43 12.55L105.43 9.73L109.62 9.73L109.62 8.32L105.43 8.32L105.43 5.64L110.04 5.64L110.04 4.2L103.64 4.2ZM121.12 5.64L121.12 14L122.91 14L122.91 5.64L125.79 5.64L125.79 4.2L118.27 4.2L118.27 5.64L121.12 5.64ZM129.33 4.2L129.33 14L133.4 14Q134.94 14 135.78 13.24Q136.17 12.89 136.38 12.46Q136.62 11.95 136.62 11.32Q136.62 10.84 136.46 10.42Q136.32 10.07 136.08 9.77Q135.8 9.43 135.44 9.22Q135.1 9.02 134.69 8.94Q135.04 8.84 135.34 8.66Q135.65 8.47 135.9 8.19Q135.96 8.13 136.01 8.06Q136.4 7.53 136.4 6.71Q136.4 6.12 136.16 5.63Q135.96 5.23 135.59 4.9Q134.79 4.2 133.26 4.2L129.33 4.2ZM149.99 9.04L146.92 14L148.94 14L150.96 10.54L153.18 14L155.24 14L152.11 9.12L155.17 4.2L153.16 4.2L151.14 7.61L148.94 4.2L146.88 4.2L149.99 9.04ZM133 8.31L131.12 8.31L131.12 5.64L132.97 5.64Q133.77 5.64 134.16 6Q134.28 6.1 134.37 6.23Q134.56 6.54 134.56 6.97Q134.56 7.45 134.34 7.77Q134.26 7.87 134.16 7.96Q133.75 8.31 133 8.31ZM143.84 12.13Q143.15 12.55 142.19 12.55Q141.25 12.55 140.56 12.13Q140.23 11.93 139.95 11.63Q139.9 11.58 139.86 11.52Q139.11 10.61 139.11 9.09Q139.11 7.58 139.86 6.67Q139.9 6.61 139.95 6.56Q140.23 6.26 140.56 6.06Q141.25 5.64 142.19 5.64Q143.15 5.64 143.84 6.06Q144.16 6.27 144.43 6.56Q144.47 6.61 144.51 6.66Q145.26 7.57 145.26 9.09Q145.26 10.62 144.51 11.53Q144.47 11.58 144.43 11.63Q144.16 11.93 143.84 12.13ZM35.9 8.81L34.21 8.81L34.21 5.69L35.89 5.69Q36.82 5.69 37.23 6.11Q37.32 6.2 37.38 6.31Q37.64 6.68 37.64 7.23Q37.64 7.79 37.38 8.18Q37.31 8.29 37.22 8.38Q36.8 8.81 35.9 8.81ZM90.07 8.81L88.38 8.81L88.38 5.69L90.06 5.69Q90.98 5.69 91.39 6.11Q91.48 6.2 91.55 6.31Q91.81 6.68 91.81 7.23Q91.81 7.79 91.55 8.18Q91.48 8.29 91.39 8.38Q90.97 8.81 90.07 8.81ZM82.71 10.33L79.87 10.33L81.28 6.25L82.71 10.33ZM133.12 12.54L131.12 12.54L131.12 9.65L133.09 9.65Q133.87 9.65 134.32 10.03Q134.33 10.04 134.34 10.05Q134.49 10.18 134.6 10.34Q134.8 10.67 134.8 11.12Q134.8 11.6 134.58 11.93Q134.49 12.06 134.36 12.17Q133.92 12.54 133.12 12.54Z" fill="#AE1332" fill-opacity="1.000000" fill-rule="evenodd"/>
</svg>
